<?xml version="1.0" encoding="UTF-8" standalone="no"?>
<svg xmlns="http://www.w3.org/2000/svg" xmlns:xlink="http://www.w3.org/1999/xlink" xmlns:serif="http://www.serif.com/" width="250px" height="99px" viewBox="0 0 250 99" xml:space="preserve" style="fill-rule:evenodd;clip-rule:evenodd;stroke-linejoin:round;stroke-miterlimit:1.41421;"> <path id="Layer-1" serif:id="Layer 1" d="M141.319,91.899c-0.278,0.763 -0.671,1.422 -1.179,1.978c-0.509,0.556 -1.12,0.993 -1.835,1.31c-0.715,0.318 -1.509,0.477 -2.382,0.477c-0.874,0 -1.665,-0.159 -2.371,-0.477c-0.707,-0.317 -1.315,-0.754 -1.823,-1.31c-0.509,-0.556 -0.902,-1.215 -1.179,-1.978c-0.279,-0.762 -0.417,-1.596 -0.417,-2.501c0,-0.842 0.138,-1.628 0.417,-2.359c0.277,-0.731 0.67,-1.37 1.179,-1.918c0.508,-0.548 1.116,-0.977 1.823,-1.287c0.706,-0.31 1.497,-0.465 2.371,-0.465c0.873,0 1.667,0.155 2.382,0.465c0.715,0.31 1.326,0.739 1.835,1.287c0.508,0.548 0.901,1.187 1.179,1.918c0.278,0.731 0.417,1.517 0.417,2.359c0,0.905 -0.139,1.739 -0.417,2.501m1.037,-8.887c-0.795,-0.778 -1.74,-1.37 -2.836,-1.775c-1.096,-0.405 -2.303,-0.599 -3.621,-0.583c-1.303,0 -2.499,0.21 -3.586,0.631c-1.089,0.421 -2.025,1.021 -2.812,1.798c-0.786,0.779 -1.402,1.72 -1.846,2.824c-0.445,1.104 -0.667,2.332 -0.667,3.681c0,1.319 0.222,2.518 0.667,3.599c0.444,1.079 1.06,2.005 1.846,2.775c0.787,0.771 1.723,1.367 2.812,1.787c1.087,0.421 2.283,0.631 3.586,0.631c1.318,-0.015 2.525,-0.242 3.621,-0.679c1.096,-0.437 2.041,-1.044 2.836,-1.823c0.794,-0.778 1.413,-1.707 1.858,-2.787c0.445,-1.08 0.667,-2.279 0.667,-3.598c0,-1.35 -0.222,-2.573 -0.667,-3.669c-0.445,-1.096 -1.064,-2.033 -1.858,-2.812m56.454,-1.93l-3.312,12.152l-0.048,0l-3.717,-12.152l-2.955,0l-3.788,12.152l-0.048,0l-3.169,-12.152l-3.288,0l4.98,16.87l2.764,0l3.908,-12.843l0.048,0l3.907,12.843l2.859,0l4.909,-16.87l-3.05,0Zm-50.188,16.87l3.002,0l0,-7.006l7.434,0l0,-2.716l-7.434,0l0,-4.432l7.887,0l0,-2.716l-10.889,0l0,16.87Zm13.903,-14.154l5.17,0l0,14.154l3.002,0l0,-14.154l5.17,0l0,-2.716l-13.342,0l0,2.716Zm87.363,-48.589l0,-11.559l-17.933,0l0,-11.632l-11.558,0l0,11.632l-8.24,0l0,11.559l8.24,0l0,13.123c0,6.305 1.584,11.255 4.708,14.714c3.359,3.72 8.449,5.605 15.126,5.605c2.737,0 7.075,-1.136 9.657,-2.492l0,-11.42c-3.724,2.324 -7.258,2.839 -9.657,2.839c-5.492,0 -8.276,-3.601 -8.276,-10.7l0,-11.669l17.933,0Zm-11.605,62.743l11.604,0l0,-2.717l-8.602,0l0,-4.574l7.744,0l0,-2.717l-7.744,0l0,-4.146l8.602,0l0,-2.716l-11.604,0l0,16.87Zm-30.516,-6.434l2.644,-6.862l2.598,6.862l-5.242,0Zm1.429,-10.436l-7.338,16.87l3.359,0l1.526,-3.861l7.314,0l1.572,3.861l3.432,0l-7.268,-16.87l-2.597,0Zm19.142,7.089c-0.429,0.039 -0.858,0.059 -1.287,0.059l-2.335,0l0,-4.575l2.597,0c0.382,0 0.775,0.024 1.18,0.072c0.405,0.048 0.774,0.147 1.108,0.298c0.334,0.151 0.603,0.377 0.81,0.679c0.206,0.301 0.31,0.699 0.31,1.191c0,0.557 -0.111,0.989 -0.334,1.299c-0.222,0.31 -0.512,0.54 -0.869,0.691c-0.358,0.151 -0.751,0.246 -1.18,0.286m4.515,0.822c0.675,-0.826 1.013,-1.851 1.013,-3.074c0,-0.953 -0.175,-1.739 -0.524,-2.359c-0.35,-0.619 -0.819,-1.112 -1.406,-1.477c-0.588,-0.365 -1.259,-0.624 -2.013,-0.774c-0.755,-0.151 -1.538,-0.227 -2.347,-0.227l-5.862,0l0,16.87l3.002,0l0,-7.149l2.193,0l3.907,7.149l3.621,0l-4.479,-7.459c1.255,-0.174 2.22,-0.674 2.895,-1.5m-110.621,0.143c-0.588,-0.366 -1.232,-0.652 -1.93,-0.858c-0.699,-0.206 -1.343,-0.421 -1.93,-0.644c-0.588,-0.222 -1.08,-0.484 -1.477,-0.786c-0.397,-0.301 -0.596,-0.738 -0.596,-1.31c0,-0.381 0.079,-0.711 0.239,-0.989c0.158,-0.278 0.369,-0.504 0.631,-0.679c0.262,-0.175 0.555,-0.302 0.881,-0.381c0.326,-0.08 0.663,-0.12 1.013,-0.12c0.588,0 1.147,0.108 1.68,0.322c0.532,0.214 0.957,0.552 1.275,1.013l2.191,-2.311c-0.666,-0.62 -1.417,-1.064 -2.251,-1.335c-0.834,-0.27 -1.696,-0.404 -2.585,-0.404c-0.778,0 -1.541,0.103 -2.287,0.309c-0.748,0.206 -1.41,0.521 -1.99,0.941c-0.58,0.421 -1.049,0.95 -1.406,1.585c-0.357,0.635 -0.536,1.39 -0.536,2.263c0,1.001 0.198,1.8 0.596,2.395c0.396,0.595 0.889,1.072 1.477,1.429c0.588,0.358 1.23,0.64 1.93,0.846c0.699,0.207 1.342,0.425 1.93,0.655c0.587,0.231 1.08,0.513 1.477,0.846c0.397,0.334 0.596,0.811 0.596,1.43c0,0.381 -0.088,0.719 -0.262,1.013c-0.175,0.294 -0.405,0.536 -0.691,0.726c-0.286,0.191 -0.604,0.334 -0.953,0.429c-0.35,0.096 -0.7,0.143 -1.049,0.143c-0.667,0 -1.298,-0.155 -1.894,-0.465c-0.596,-0.309 -1.076,-0.742 -1.442,-1.298l-2.263,2.192c0.699,0.826 1.533,1.414 2.502,1.763c0.969,0.349 1.978,0.524 3.026,0.524c0.825,0 1.612,-0.111 2.359,-0.334c0.746,-0.222 1.401,-0.555 1.965,-1c0.564,-0.445 1.013,-1.004 1.346,-1.68c0.334,-0.675 0.501,-1.465 0.501,-2.37c0,-1.001 -0.199,-1.803 -0.596,-2.407c-0.397,-0.603 -0.889,-1.088 -1.477,-1.453m-99.005,-31.657c-4.86,0 -8.729,-2.107 -11.5,-6.265l-0.168,-0.253l0,-11.303l0.2,-0.268c3.008,-4.011 7.081,-6.219 11.468,-6.219c6.435,0 11.67,5.452 11.67,12.154c0,6.702 -5.235,12.154 -11.67,12.154m0.97,-35.382c-3.76,0 -7.805,1.181 -11.099,3.24l-1.539,0.963l0,-4.421l-11.559,0l0,76.076l11.559,0l0,-33.604l1.539,0.962c3.294,2.059 7.34,3.239 11.099,3.239c6.13,0 11.783,-2.409 15.917,-6.785c4.089,-4.328 6.341,-10.167 6.341,-16.442c0,-6.275 -2.252,-12.114 -6.341,-16.442c-4.134,-4.376 -9.787,-6.786 -15.917,-6.786m166.952,45.199l11.558,0l0,-43.547l-11.558,0l0,43.547Zm-111.482,-44.165c-3.757,0 -7.991,1.188 -11.617,3.261l-1.506,0.86l0,-3.503l-11.559,0l0,43.547l11.559,0l0,-27.625l0.259,-0.288c2.885,-3.194 7.257,-5.178 11.41,-5.178c1.475,0 6.141,0.18 9.615,2.284l-0.42,-11.781c-2.342,-1.074 -4.819,-1.577 -7.741,-1.577m23.792,21.976c0,-7.043 4.908,-12.154 11.669,-12.154c6.762,0 11.669,5.111 11.669,12.154c0,7.042 -4.907,12.154 -11.669,12.154c-6.761,0 -11.669,-5.112 -11.669,-12.154m34.897,0c0,-13.025 -10.203,-23.228 -23.228,-23.228c-13.025,0 -23.228,10.203 -23.228,23.228c0,13.024 10.203,23.227 23.228,23.227c13.025,0 23.228,-10.203 23.228,-23.227m13.802,22.189l11.558,0l0,-31.989l17.448,0l0,-11.558l-17.448,0l0,-1.491c0,-7.421 3.339,-11.184 9.924,-11.184c2.698,0 5.009,0.706 7.524,2.331l0,-11.806c-2.52,-1.039 -4.784,-1.599 -8.687,-1.599c-12.533,0 -20.319,8.343 -20.319,21.774l0,1.975l-7.755,0l0,11.558l7.755,0l0,31.989Zm52.879,-58.032l-8.109,-8.109l-8.109,8.109l8.109,8.109l8.109,-8.109Z" style="fill:#021572;fill-rule:nonzero;"/> </svg>